<svg xmlns="http://www.w3.org/2000/svg" width="1600" height="980" viewBox="0 0 1600 980">
<rect width="100%" height="100%" fill="white"/>
<text x="70.0" y="52.0" font-size="28" fill="#111827" text-anchor="start" dominant-baseline="middle">sense_force Synthesized View</text>
<text x="70.0" y="84.0" font-size="15" fill="#4b5563" text-anchor="start" dominant-baseline="middle">Ports: teal   State/storage: blue   Logic cells: brown   Bit-slice connectors: gray</text>
<line x1="1030.0" y1="382.9" x2="832.0" y2="146.0" stroke="#9aa1a8" stroke-width="1.2" stroke-opacity="0.45"/>
<line x1="1030.0" y1="408.0" x2="881.3" y2="146.0" stroke="#9aa1a8" stroke-width="1.2" stroke-opacity="0.45"/>
<line x1="1030.0" y1="596.8" x2="973.7" y2="795.1" stroke="#9aa1a8" stroke-width="1.2" stroke-opacity="0.45"/>
<line x1="1030.0" y1="731.1" x2="913.4" y2="795.1" stroke="#9aa1a8" stroke-width="1.2" stroke-opacity="0.45"/>
<line x1="1030.0" y1="744.7" x2="1066.3" y2="795.1" stroke="#9aa1a8" stroke-width="1.2" stroke-opacity="0.45"/>
<line x1="1030.0" y1="758.9" x2="867.3" y2="795.1" stroke="#9aa1a8" stroke-width="1.2" stroke-opacity="0.45"/>
<line x1="1030.0" y1="772.6" x2="689.8" y2="795.1" stroke="#9aa1a8" stroke-width="1.2" stroke-opacity="0.45"/>
<line x1="1030.0" y1="784.1" x2="721.2" y2="795.1" stroke="#9aa1a8" stroke-width="1.2" stroke-opacity="0.45"/>
<line x1="1030.0" y1="791.8" x2="785.3" y2="795.1" stroke="#9aa1a8" stroke-width="1.2" stroke-opacity="0.45"/>
<line x1="1030.0" y1="795.1" x2="785.3" y2="795.1" stroke="#9aa1a8" stroke-width="1.2" stroke-opacity="0.45"/>
<line x1="1030.0" y1="430.5" x2="991.4" y2="146.0" stroke="#9aa1a8" stroke-width="1.2" stroke-opacity="0.45"/>
<line x1="1030.0" y1="458.4" x2="1081.1" y2="333.7" stroke="#9aa1a8" stroke-width="1.2" stroke-opacity="0.45"/>
<line x1="1030.0" y1="471.3" x2="745.6" y2="249.9" stroke="#9aa1a8" stroke-width="1.2" stroke-opacity="0.45"/>
<line x1="1030.0" y1="494.3" x2="902.0" y2="322.9" stroke="#9aa1a8" stroke-width="1.2" stroke-opacity="0.45"/>
<line x1="1030.0" y1="511.3" x2="902.0" y2="322.9" stroke="#9aa1a8" stroke-width="1.2" stroke-opacity="0.45"/>
<line x1="1030.0" y1="529.6" x2="744.5" y2="496.0" stroke="#9aa1a8" stroke-width="1.2" stroke-opacity="0.45"/>
<line x1="1030.0" y1="544.1" x2="744.5" y2="496.0" stroke="#9aa1a8" stroke-width="1.2" stroke-opacity="0.45"/>
<line x1="1030.0" y1="557.7" x2="853.4" y2="458.9" stroke="#9aa1a8" stroke-width="1.2" stroke-opacity="0.45"/>
<line x1="1030.0" y1="574.7" x2="1081.1" y2="795.1" stroke="#9aa1a8" stroke-width="1.2" stroke-opacity="0.45"/>
<line x1="1030.0" y1="584.8" x2="793.1" y2="598.6" stroke="#9aa1a8" stroke-width="1.2" stroke-opacity="0.45"/>
<line x1="1030.0" y1="605.5" x2="793.1" y2="598.6" stroke="#9aa1a8" stroke-width="1.2" stroke-opacity="0.45"/>
<line x1="1030.0" y1="613.6" x2="1081.1" y2="360.5" stroke="#9aa1a8" stroke-width="1.2" stroke-opacity="0.45"/>
<line x1="1030.0" y1="623.4" x2="1081.1" y2="360.5" stroke="#9aa1a8" stroke-width="1.2" stroke-opacity="0.45"/>
<line x1="773.7" y1="368.3" x2="1030.0" y2="633.7" stroke="#9aa1a8" stroke-width="1.2" stroke-opacity="0.45"/>
<line x1="1030.0" y1="651.7" x2="913.0" y2="640.0" stroke="#9aa1a8" stroke-width="1.2" stroke-opacity="0.45"/>
<line x1="626.6" y1="512.2" x2="1030.0" y2="662.5" stroke="#9aa1a8" stroke-width="1.2" stroke-opacity="0.45"/>
<line x1="621.1" y1="591.0" x2="1030.0" y2="679.1" stroke="#9aa1a8" stroke-width="1.2" stroke-opacity="0.45"/>
<line x1="832.0" y1="146.0" x2="1112.2" y2="146.0" stroke="#9aa1a8" stroke-width="1.2" stroke-opacity="0.45"/>
<line x1="1112.2" y1="146.0" x2="991.4" y2="146.0" stroke="#9aa1a8" stroke-width="1.2" stroke-opacity="0.45"/>
<line x1="1112.2" y1="146.0" x2="853.4" y2="458.9" stroke="#9aa1a8" stroke-width="1.2" stroke-opacity="0.45"/>
<line x1="621.1" y1="634.8" x2="549.7" y2="391.5" stroke="#9aa1a8" stroke-width="1.2" stroke-opacity="0.45"/>
<line x1="549.7" y1="391.5" x2="621.1" y2="146.0" stroke="#9aa1a8" stroke-width="1.2" stroke-opacity="0.45"/>
<line x1="549.7" y1="391.5" x2="773.7" y2="368.3" stroke="#9aa1a8" stroke-width="1.2" stroke-opacity="0.45"/>
<line x1="549.7" y1="391.5" x2="626.6" y2="512.2" stroke="#9aa1a8" stroke-width="1.2" stroke-opacity="0.45"/>
<line x1="549.7" y1="391.5" x2="621.1" y2="591.0" stroke="#9aa1a8" stroke-width="1.2" stroke-opacity="0.45"/>
<line x1="549.7" y1="391.5" x2="621.1" y2="164.0" stroke="#9aa1a8" stroke-width="1.2" stroke-opacity="0.45"/>
<line x1="549.7" y1="391.5" x2="621.1" y2="228.9" stroke="#9aa1a8" stroke-width="1.2" stroke-opacity="0.45"/>
<line x1="991.4" y1="146.0" x2="1214.8" y2="146.0" stroke="#9aa1a8" stroke-width="1.2" stroke-opacity="0.45"/>
<line x1="1214.8" y1="146.0" x2="1081.1" y2="146.0" stroke="#9aa1a8" stroke-width="1.2" stroke-opacity="0.45"/>
<line x1="1214.8" y1="146.0" x2="976.4" y2="146.0" stroke="#9aa1a8" stroke-width="1.2" stroke-opacity="0.45"/>
<line x1="1081.1" y1="795.1" x2="1279.4" y2="640.1" stroke="#9aa1a8" stroke-width="1.2" stroke-opacity="0.45"/>
<line x1="1279.4" y1="640.1" x2="1081.1" y2="333.7" stroke="#9aa1a8" stroke-width="1.2" stroke-opacity="0.45"/>
<line x1="1279.4" y1="640.1" x2="1081.1" y2="778.6" stroke="#9aa1a8" stroke-width="1.2" stroke-opacity="0.45"/>
<line x1="1081.1" y1="333.7" x2="976.4" y2="146.0" stroke="#9aa1a8" stroke-width="1.2" stroke-opacity="0.45"/>
<line x1="976.4" y1="146.0" x2="748.6" y2="146.0" stroke="#9aa1a8" stroke-width="1.2" stroke-opacity="0.45"/>
<line x1="748.6" y1="146.0" x2="1081.1" y2="146.0" stroke="#9aa1a8" stroke-width="1.2" stroke-opacity="0.45"/>
<line x1="748.6" y1="146.0" x2="621.1" y2="324.0" stroke="#9aa1a8" stroke-width="1.2" stroke-opacity="0.45"/>
<line x1="748.6" y1="146.0" x2="621.1" y2="164.0" stroke="#9aa1a8" stroke-width="1.2" stroke-opacity="0.45"/>
<line x1="748.6" y1="146.0" x2="745.6" y2="249.9" stroke="#9aa1a8" stroke-width="1.2" stroke-opacity="0.45"/>
<line x1="745.6" y1="249.9" x2="651.2" y2="146.0" stroke="#9aa1a8" stroke-width="1.2" stroke-opacity="0.45"/>
<line x1="902.0" y1="322.9" x2="925.8" y2="146.0" stroke="#9aa1a8" stroke-width="1.2" stroke-opacity="0.45"/>
<line x1="925.8" y1="146.0" x2="936.8" y2="265.9" stroke="#9aa1a8" stroke-width="1.2" stroke-opacity="0.45"/>
<line x1="936.8" y1="265.9" x2="1081.1" y2="197.1" stroke="#9aa1a8" stroke-width="1.2" stroke-opacity="0.45"/>
<line x1="936.8" y1="265.9" x2="1081.1" y2="230.0" stroke="#9aa1a8" stroke-width="1.2" stroke-opacity="0.45"/>
<line x1="936.8" y1="265.9" x2="621.1" y2="184.1" stroke="#9aa1a8" stroke-width="1.2" stroke-opacity="0.45"/>
<line x1="936.8" y1="265.9" x2="1038.3" y2="146.0" stroke="#9aa1a8" stroke-width="1.2" stroke-opacity="0.45"/>
<line x1="936.8" y1="265.9" x2="1081.1" y2="468.5" stroke="#9aa1a8" stroke-width="1.2" stroke-opacity="0.45"/>
<line x1="936.8" y1="265.9" x2="1081.1" y2="483.9" stroke="#9aa1a8" stroke-width="1.2" stroke-opacity="0.45"/>
<line x1="1081.1" y1="681.0" x2="1312.9" y2="795.1" stroke="#9aa1a8" stroke-width="1.2" stroke-opacity="0.45"/>
<line x1="1312.9" y1="795.1" x2="1081.1" y2="778.6" stroke="#9aa1a8" stroke-width="1.2" stroke-opacity="0.45"/>
<line x1="1312.9" y1="795.1" x2="1081.1" y2="795.1" stroke="#9aa1a8" stroke-width="1.2" stroke-opacity="0.45"/>
<line x1="744.5" y1="496.0" x2="621.1" y2="291.8" stroke="#9aa1a8" stroke-width="1.2" stroke-opacity="0.45"/>
<line x1="881.3" y1="146.0" x2="1142.8" y2="146.0" stroke="#9aa1a8" stroke-width="1.2" stroke-opacity="0.45"/>
<line x1="1142.8" y1="146.0" x2="1081.1" y2="146.0" stroke="#9aa1a8" stroke-width="1.2" stroke-opacity="0.45"/>
<line x1="1142.8" y1="146.0" x2="925.8" y2="146.0" stroke="#9aa1a8" stroke-width="1.2" stroke-opacity="0.45"/>
<line x1="1081.1" y1="778.6" x2="1256.6" y2="795.1" stroke="#9aa1a8" stroke-width="1.2" stroke-opacity="0.45"/>
<line x1="1256.6" y1="795.1" x2="1081.1" y2="468.5" stroke="#9aa1a8" stroke-width="1.2" stroke-opacity="0.45"/>
<line x1="1256.6" y1="795.1" x2="933.9" y2="795.1" stroke="#9aa1a8" stroke-width="1.2" stroke-opacity="0.45"/>
<line x1="1081.1" y1="468.5" x2="1285.5" y2="414.2" stroke="#9aa1a8" stroke-width="1.2" stroke-opacity="0.45"/>
<line x1="1285.5" y1="414.2" x2="1081.1" y2="146.0" stroke="#9aa1a8" stroke-width="1.2" stroke-opacity="0.45"/>
<line x1="1285.5" y1="414.2" x2="1081.1" y2="687.5" stroke="#9aa1a8" stroke-width="1.2" stroke-opacity="0.45"/>
<line x1="853.4" y1="458.9" x2="723.6" y2="724.3" stroke="#9aa1a8" stroke-width="1.2" stroke-opacity="0.45"/>
<line x1="723.6" y1="724.3" x2="933.9" y2="795.1" stroke="#9aa1a8" stroke-width="1.2" stroke-opacity="0.45"/>
<line x1="933.9" y1="795.1" x2="1081.1" y2="687.5" stroke="#9aa1a8" stroke-width="1.2" stroke-opacity="0.45"/>
<line x1="1081.1" y1="687.5" x2="777.9" y2="443.2" stroke="#9aa1a8" stroke-width="1.2" stroke-opacity="0.45"/>
<line x1="777.9" y1="443.2" x2="809.9" y2="146.0" stroke="#9aa1a8" stroke-width="1.2" stroke-opacity="0.45"/>
<line x1="777.9" y1="443.2" x2="660.5" y2="383.2" stroke="#9aa1a8" stroke-width="1.2" stroke-opacity="0.45"/>
<line x1="1081.1" y1="795.1" x2="1286.1" y2="684.4" stroke="#9aa1a8" stroke-width="1.2" stroke-opacity="0.45"/>
<line x1="1286.1" y1="684.4" x2="1081.1" y2="376.3" stroke="#9aa1a8" stroke-width="1.2" stroke-opacity="0.45"/>
<line x1="1286.1" y1="684.4" x2="1081.1" y2="795.1" stroke="#9aa1a8" stroke-width="1.2" stroke-opacity="0.45"/>
<line x1="1081.1" y1="795.1" x2="1081.1" y2="483.9" stroke="#9aa1a8" stroke-width="1.2" stroke-opacity="0.45"/>
<line x1="1081.1" y1="483.9" x2="1221.3" y2="235.0" stroke="#9aa1a8" stroke-width="1.2" stroke-opacity="0.45"/>
<line x1="1221.3" y1="235.0" x2="1081.1" y2="151.9" stroke="#9aa1a8" stroke-width="1.2" stroke-opacity="0.45"/>
<line x1="1221.3" y1="235.0" x2="923.1" y2="146.0" stroke="#9aa1a8" stroke-width="1.2" stroke-opacity="0.45"/>
<line x1="793.1" y1="598.6" x2="840.6" y2="357.8" stroke="#9aa1a8" stroke-width="1.2" stroke-opacity="0.45"/>
<line x1="840.6" y1="357.8" x2="1081.1" y2="277.0" stroke="#9aa1a8" stroke-width="1.2" stroke-opacity="0.45"/>
<line x1="840.6" y1="357.8" x2="621.1" y2="291.8" stroke="#9aa1a8" stroke-width="1.2" stroke-opacity="0.45"/>
<line x1="840.6" y1="357.8" x2="1081.1" y2="421.0" stroke="#9aa1a8" stroke-width="1.2" stroke-opacity="0.45"/>
<line x1="973.7" y1="795.1" x2="1255.4" y2="704.0" stroke="#9aa1a8" stroke-width="1.2" stroke-opacity="0.45"/>
<line x1="1255.4" y1="704.0" x2="1081.1" y2="681.0" stroke="#9aa1a8" stroke-width="1.2" stroke-opacity="0.45"/>
<line x1="1255.4" y1="704.0" x2="1081.1" y2="421.0" stroke="#9aa1a8" stroke-width="1.2" stroke-opacity="0.45"/>
<line x1="1081.1" y1="421.0" x2="1081.1" y2="197.1" stroke="#9aa1a8" stroke-width="1.2" stroke-opacity="0.45"/>
<line x1="1081.1" y1="197.1" x2="1330.4" y2="146.0" stroke="#9aa1a8" stroke-width="1.2" stroke-opacity="0.45"/>
<line x1="1330.4" y1="146.0" x2="1081.1" y2="151.9" stroke="#9aa1a8" stroke-width="1.2" stroke-opacity="0.45"/>
<line x1="1330.4" y1="146.0" x2="1081.1" y2="255.5" stroke="#9aa1a8" stroke-width="1.2" stroke-opacity="0.45"/>
<line x1="1081.1" y1="151.9" x2="809.9" y2="146.0" stroke="#9aa1a8" stroke-width="1.2" stroke-opacity="0.45"/>
<line x1="809.9" y1="146.0" x2="651.2" y2="146.0" stroke="#9aa1a8" stroke-width="1.2" stroke-opacity="0.45"/>
<line x1="651.2" y1="146.0" x2="621.1" y2="146.0" stroke="#9aa1a8" stroke-width="1.2" stroke-opacity="0.45"/>
<line x1="1081.1" y1="255.5" x2="1065.1" y2="146.0" stroke="#9aa1a8" stroke-width="1.2" stroke-opacity="0.45"/>
<line x1="1081.1" y1="360.5" x2="1151.1" y2="146.0" stroke="#9aa1a8" stroke-width="1.2" stroke-opacity="0.45"/>
<line x1="1151.1" y1="146.0" x2="779.0" y2="146.0" stroke="#9aa1a8" stroke-width="1.2" stroke-opacity="0.45"/>
<line x1="1151.1" y1="146.0" x2="1081.1" y2="230.0" stroke="#9aa1a8" stroke-width="1.2" stroke-opacity="0.45"/>
<line x1="1151.1" y1="146.0" x2="1081.1" y2="277.0" stroke="#9aa1a8" stroke-width="1.2" stroke-opacity="0.45"/>
<line x1="779.0" y1="146.0" x2="625.3" y2="146.0" stroke="#9aa1a8" stroke-width="1.2" stroke-opacity="0.45"/>
<line x1="1081.1" y1="230.0" x2="1203.6" y2="146.0" stroke="#9aa1a8" stroke-width="1.2" stroke-opacity="0.45"/>
<line x1="1203.6" y1="146.0" x2="1081.1" y2="376.3" stroke="#9aa1a8" stroke-width="1.2" stroke-opacity="0.45"/>
<line x1="1203.6" y1="146.0" x2="971.8" y2="295.5" stroke="#9aa1a8" stroke-width="1.2" stroke-opacity="0.45"/>
<line x1="1081.1" y1="376.3" x2="1065.1" y2="146.0" stroke="#9aa1a8" stroke-width="1.2" stroke-opacity="0.45"/>
<line x1="913.4" y1="795.1" x2="1218.4" y2="595.4" stroke="#9aa1a8" stroke-width="1.2" stroke-opacity="0.45"/>
<line x1="1218.4" y1="595.4" x2="1081.1" y2="255.5" stroke="#9aa1a8" stroke-width="1.2" stroke-opacity="0.45"/>
<line x1="1218.4" y1="595.4" x2="1081.1" y2="681.0" stroke="#9aa1a8" stroke-width="1.2" stroke-opacity="0.45"/>
<line x1="1065.1" y1="146.0" x2="1234.7" y2="146.0" stroke="#9aa1a8" stroke-width="1.2" stroke-opacity="0.45"/>
<line x1="1234.7" y1="146.0" x2="1024.3" y2="146.0" stroke="#9aa1a8" stroke-width="1.2" stroke-opacity="0.45"/>
<line x1="1234.7" y1="146.0" x2="862.9" y2="146.0" stroke="#9aa1a8" stroke-width="1.2" stroke-opacity="0.45"/>
<line x1="1081.1" y1="277.0" x2="1305.0" y2="146.0" stroke="#9aa1a8" stroke-width="1.2" stroke-opacity="0.45"/>
<line x1="1305.0" y1="146.0" x2="1081.1" y2="186.8" stroke="#9aa1a8" stroke-width="1.2" stroke-opacity="0.45"/>
<line x1="1305.0" y1="146.0" x2="1038.3" y2="146.0" stroke="#9aa1a8" stroke-width="1.2" stroke-opacity="0.45"/>
<line x1="1081.1" y1="146.0" x2="1081.1" y2="186.8" stroke="#9aa1a8" stroke-width="1.2" stroke-opacity="0.45"/>
<line x1="1081.1" y1="186.8" x2="1268.2" y2="146.0" stroke="#9aa1a8" stroke-width="1.2" stroke-opacity="0.45"/>
<line x1="1268.2" y1="146.0" x2="1081.1" y2="146.0" stroke="#9aa1a8" stroke-width="1.2" stroke-opacity="0.45"/>
<line x1="1268.2" y1="146.0" x2="966.8" y2="146.0" stroke="#9aa1a8" stroke-width="1.2" stroke-opacity="0.45"/>
<line x1="1081.1" y1="146.0" x2="1081.1" y2="146.0" stroke="#9aa1a8" stroke-width="1.2" stroke-opacity="0.45"/>
<line x1="1081.1" y1="146.0" x2="1024.3" y2="146.0" stroke="#9aa1a8" stroke-width="1.2" stroke-opacity="0.45"/>
<line x1="1024.3" y1="146.0" x2="773.7" y2="368.3" stroke="#9aa1a8" stroke-width="1.2" stroke-opacity="0.45"/>
<line x1="913.0" y1="640.0" x2="971.8" y2="295.5" stroke="#9aa1a8" stroke-width="1.2" stroke-opacity="0.45"/>
<line x1="971.8" y1="295.5" x2="923.1" y2="146.0" stroke="#9aa1a8" stroke-width="1.2" stroke-opacity="0.45"/>
<line x1="923.1" y1="146.0" x2="862.9" y2="146.0" stroke="#9aa1a8" stroke-width="1.2" stroke-opacity="0.45"/>
<line x1="1066.3" y1="795.1" x2="1215.4" y2="795.1" stroke="#9aa1a8" stroke-width="1.2" stroke-opacity="0.45"/>
<line x1="1215.4" y1="795.1" x2="1081.1" y2="795.1" stroke="#9aa1a8" stroke-width="1.2" stroke-opacity="0.45"/>
<line x1="1215.4" y1="795.1" x2="1081.1" y2="795.1" stroke="#9aa1a8" stroke-width="1.2" stroke-opacity="0.45"/>
<line x1="862.9" y1="146.0" x2="517.6" y2="286.9" stroke="#9aa1a8" stroke-width="1.2" stroke-opacity="0.45"/>
<line x1="517.6" y1="286.9" x2="626.6" y2="512.2" stroke="#9aa1a8" stroke-width="1.2" stroke-opacity="0.45"/>
<line x1="517.6" y1="286.9" x2="621.1" y2="427.7" stroke="#9aa1a8" stroke-width="1.2" stroke-opacity="0.45"/>
<line x1="621.1" y1="291.8" x2="625.3" y2="146.0" stroke="#9aa1a8" stroke-width="1.2" stroke-opacity="0.45"/>
<line x1="625.3" y1="146.0" x2="621.1" y2="184.1" stroke="#9aa1a8" stroke-width="1.2" stroke-opacity="0.45"/>
<line x1="621.1" y1="184.1" x2="621.1" y2="324.0" stroke="#9aa1a8" stroke-width="1.2" stroke-opacity="0.45"/>
<line x1="621.1" y1="324.0" x2="414.7" y2="543.5" stroke="#9aa1a8" stroke-width="1.2" stroke-opacity="0.45"/>
<line x1="414.7" y1="543.5" x2="621.1" y2="591.0" stroke="#9aa1a8" stroke-width="1.2" stroke-opacity="0.45"/>
<line x1="414.7" y1="543.5" x2="621.1" y2="652.3" stroke="#9aa1a8" stroke-width="1.2" stroke-opacity="0.45"/>
<line x1="1038.3" y1="146.0" x2="966.8" y2="146.0" stroke="#9aa1a8" stroke-width="1.2" stroke-opacity="0.45"/>
<line x1="966.8" y1="146.0" x2="660.5" y2="383.2" stroke="#9aa1a8" stroke-width="1.2" stroke-opacity="0.45"/>
<line x1="660.5" y1="383.2" x2="621.1" y2="652.3" stroke="#9aa1a8" stroke-width="1.2" stroke-opacity="0.45"/>
<line x1="621.1" y1="652.3" x2="621.1" y2="427.7" stroke="#9aa1a8" stroke-width="1.2" stroke-opacity="0.45"/>
<line x1="621.1" y1="427.7" x2="621.1" y2="228.9" stroke="#9aa1a8" stroke-width="1.2" stroke-opacity="0.45"/>
<line x1="867.3" y1="795.1" x2="1152.0" y2="795.1" stroke="#9aa1a8" stroke-width="1.2" stroke-opacity="0.45"/>
<line x1="1152.0" y1="795.1" x2="913.0" y2="640.0" stroke="#9aa1a8" stroke-width="1.2" stroke-opacity="0.45"/>
<line x1="1152.0" y1="795.1" x2="1081.1" y2="795.1" stroke="#9aa1a8" stroke-width="1.2" stroke-opacity="0.45"/>
<line x1="621.1" y1="146.0" x2="250.6" y2="146.0" stroke="#9aa1a8" stroke-width="1.2" stroke-opacity="0.45"/>
<line x1="621.1" y1="228.9" x2="250.6" y2="154.5" stroke="#9aa1a8" stroke-width="1.2" stroke-opacity="0.45"/>
<line x1="621.1" y1="164.0" x2="250.6" y2="201.2" stroke="#9aa1a8" stroke-width="1.2" stroke-opacity="0.45"/>
<line x1="1030.0" y1="633.7" x2="250.6" y2="601.4" stroke="#9aa1a8" stroke-width="1.2" stroke-opacity="0.45"/>
<line x1="1030.0" y1="662.5" x2="250.6" y2="601.4" stroke="#9aa1a8" stroke-width="1.2" stroke-opacity="0.45"/>
<line x1="1030.0" y1="679.1" x2="250.6" y2="601.4" stroke="#9aa1a8" stroke-width="1.2" stroke-opacity="0.45"/>
<line x1="250.6" y1="606.8" x2="1030.0" y2="382.9" stroke="#9aa1a8" stroke-width="1.2" stroke-opacity="0.45"/>
<line x1="250.6" y1="606.8" x2="1030.0" y2="430.5" stroke="#9aa1a8" stroke-width="1.2" stroke-opacity="0.45"/>
<line x1="250.6" y1="606.8" x2="1030.0" y2="458.4" stroke="#9aa1a8" stroke-width="1.2" stroke-opacity="0.45"/>
<line x1="250.6" y1="606.8" x2="1030.0" y2="471.3" stroke="#9aa1a8" stroke-width="1.2" stroke-opacity="0.45"/>
<line x1="250.6" y1="606.8" x2="1030.0" y2="494.3" stroke="#9aa1a8" stroke-width="1.2" stroke-opacity="0.45"/>
<line x1="250.6" y1="606.8" x2="1030.0" y2="511.3" stroke="#9aa1a8" stroke-width="1.2" stroke-opacity="0.45"/>
<line x1="250.6" y1="606.8" x2="1030.0" y2="529.6" stroke="#9aa1a8" stroke-width="1.2" stroke-opacity="0.45"/>
<line x1="250.6" y1="606.8" x2="1030.0" y2="544.1" stroke="#9aa1a8" stroke-width="1.2" stroke-opacity="0.45"/>
<line x1="250.6" y1="606.8" x2="1030.0" y2="557.7" stroke="#9aa1a8" stroke-width="1.2" stroke-opacity="0.45"/>
<line x1="250.6" y1="606.8" x2="1030.0" y2="574.7" stroke="#9aa1a8" stroke-width="1.2" stroke-opacity="0.45"/>
<line x1="250.6" y1="606.8" x2="1030.0" y2="584.8" stroke="#9aa1a8" stroke-width="1.2" stroke-opacity="0.45"/>
<line x1="250.6" y1="606.8" x2="1030.0" y2="408.0" stroke="#9aa1a8" stroke-width="1.2" stroke-opacity="0.45"/>
<line x1="250.6" y1="606.8" x2="1030.0" y2="605.5" stroke="#9aa1a8" stroke-width="1.2" stroke-opacity="0.45"/>
<line x1="250.6" y1="606.8" x2="1030.0" y2="613.6" stroke="#9aa1a8" stroke-width="1.2" stroke-opacity="0.45"/>
<line x1="250.6" y1="606.8" x2="1030.0" y2="623.4" stroke="#9aa1a8" stroke-width="1.2" stroke-opacity="0.45"/>
<line x1="250.6" y1="606.8" x2="1030.0" y2="651.7" stroke="#9aa1a8" stroke-width="1.2" stroke-opacity="0.45"/>
<line x1="250.6" y1="606.8" x2="1030.0" y2="702.4" stroke="#9aa1a8" stroke-width="1.2" stroke-opacity="0.45"/>
<line x1="250.6" y1="606.8" x2="1030.0" y2="718.0" stroke="#9aa1a8" stroke-width="1.2" stroke-opacity="0.45"/>
<line x1="250.6" y1="606.8" x2="1030.0" y2="596.8" stroke="#9aa1a8" stroke-width="1.2" stroke-opacity="0.45"/>
<line x1="250.6" y1="606.8" x2="1030.0" y2="731.1" stroke="#9aa1a8" stroke-width="1.2" stroke-opacity="0.45"/>
<line x1="250.6" y1="606.8" x2="1030.0" y2="744.7" stroke="#9aa1a8" stroke-width="1.2" stroke-opacity="0.45"/>
<line x1="250.6" y1="606.8" x2="1030.0" y2="758.9" stroke="#9aa1a8" stroke-width="1.2" stroke-opacity="0.45"/>
<line x1="250.6" y1="606.8" x2="1030.0" y2="772.6" stroke="#9aa1a8" stroke-width="1.2" stroke-opacity="0.45"/>
<line x1="250.6" y1="606.8" x2="1030.0" y2="784.1" stroke="#9aa1a8" stroke-width="1.2" stroke-opacity="0.45"/>
<line x1="250.6" y1="606.8" x2="1030.0" y2="791.8" stroke="#9aa1a8" stroke-width="1.2" stroke-opacity="0.45"/>
<line x1="250.6" y1="606.8" x2="1030.0" y2="795.1" stroke="#9aa1a8" stroke-width="1.2" stroke-opacity="0.45"/>
<line x1="1030.0" y1="702.4" x2="621.1" y2="787.9" stroke="#9aa1a8" stroke-width="1.2" stroke-opacity="0.45"/>
<line x1="1030.0" y1="718.0" x2="621.1" y2="795.1" stroke="#9aa1a8" stroke-width="1.2" stroke-opacity="0.45"/>
<line x1="689.8" y1="795.1" x2="723.6" y2="724.3" stroke="#9aa1a8" stroke-width="1.2" stroke-opacity="0.45"/>
<line x1="721.2" y1="795.1" x2="621.1" y2="634.8" stroke="#9aa1a8" stroke-width="1.2" stroke-opacity="0.45"/>
<line x1="785.3" y1="795.1" x2="621.1" y2="634.8" stroke="#9aa1a8" stroke-width="1.2" stroke-opacity="0.45"/>
<circle cx="250.6" cy="146.0" r="14.0" fill="#0f766e" stroke="#0f766e"/>
<text x="270.6" y="146.0" font-size="14" fill="#111827" text-anchor="start" dominant-baseline="middle">ab_sel</text>
<circle cx="250.6" cy="154.5" r="14.0" fill="#0f766e" stroke="#0f766e"/>
<text x="270.6" y="154.5" font-size="14" fill="#111827" text-anchor="start" dominant-baseline="middle">cal_active</text>
<circle cx="250.6" cy="201.2" r="14.0" fill="#0f766e" stroke="#0f766e"/>
<text x="270.6" y="201.2" font-size="14" fill="#111827" text-anchor="start" dominant-baseline="middle">cal_mode_comp</text>
<circle cx="250.6" cy="601.4" r="14.0" fill="#0f766e" stroke="#0f766e"/>
<text x="270.6" y="601.4" font-size="14" fill="#111827" text-anchor="start" dominant-baseline="middle">channel</text>
<circle cx="250.6" cy="606.8" r="14.0" fill="#0f766e" stroke="#0f766e"/>
<text x="270.6" y="606.8" font-size="14" fill="#111827" text-anchor="start" dominant-baseline="middle">raw_code</text>
<rect x="606.1" y="772.9" width="30.0" height="30.0" transform="rotate(45 621.1 787.9)" fill="#2563eb" stroke="#2563eb"/>
<text x="641.1" y="787.9" font-size="14" fill="#111827" text-anchor="start" dominant-baseline="middle">x_code</text>
<rect x="606.1" y="780.1" width="30.0" height="30.0" transform="rotate(45 621.1 795.1)" fill="#2563eb" stroke="#2563eb"/>
<text x="641.1" y="795.1" font-size="14" fill="#111827" text-anchor="start" dominant-baseline="middle">y_code</text>
<rect x="822.0" y="136.0" width="20.0" height="20.0" rx="3" ry="3" fill="#b45309" stroke="#b45309"/>
<text x="850.0" y="146.0" font-size="11" fill="#111827" text-anchor="start" dominant-baseline="middle">$_NOT_|{&lt;p68&gt; Y}}</text>
<circle cx="1030.0" cy="382.9" r="4.0" fill="#6b7280" stroke="#6b7280"/>
<rect x="871.3" y="136.0" width="20.0" height="20.0" rx="3" ry="3" fill="#b45309" stroke="#b45309"/>
<text x="899.3" y="146.0" font-size="11" fill="#111827" text-anchor="start" dominant-baseline="middle">$_NOT_|{&lt;p68&gt; Y}}</text>
<circle cx="1030.0" cy="408.0" r="4.0" fill="#6b7280" stroke="#6b7280"/>
<rect x="963.7" y="785.1" width="20.0" height="20.0" rx="3" ry="3" fill="#b45309" stroke="#b45309"/>
<text x="991.7" y="795.1" font-size="11" fill="#111827" text-anchor="start" dominant-baseline="middle">$_NOT_|{&lt;p68&gt; Y}}</text>
<circle cx="1030.0" cy="596.8" r="4.0" fill="#6b7280" stroke="#6b7280"/>
<rect x="903.4" y="785.1" width="20.0" height="20.0" rx="3" ry="3" fill="#b45309" stroke="#b45309"/>
<text x="931.4" y="795.1" font-size="11" fill="#111827" text-anchor="start" dominant-baseline="middle">$_NOT_|{&lt;p68&gt; Y}}</text>
<circle cx="1030.0" cy="731.1" r="4.0" fill="#6b7280" stroke="#6b7280"/>
<rect x="1056.3" y="785.1" width="20.0" height="20.0" rx="3" ry="3" fill="#b45309" stroke="#b45309"/>
<text x="1084.3" y="795.1" font-size="11" fill="#111827" text-anchor="start" dominant-baseline="middle">$_NOT_|{&lt;p68&gt; Y}}</text>
<circle cx="1030.0" cy="744.7" r="4.0" fill="#6b7280" stroke="#6b7280"/>
<rect x="857.3" y="785.1" width="20.0" height="20.0" rx="3" ry="3" fill="#b45309" stroke="#b45309"/>
<text x="885.3" y="795.1" font-size="11" fill="#111827" text-anchor="start" dominant-baseline="middle">$_NOT_|{&lt;p68&gt; Y}}</text>
<circle cx="1030.0" cy="758.9" r="4.0" fill="#6b7280" stroke="#6b7280"/>
<rect x="679.8" y="785.1" width="20.0" height="20.0" rx="3" ry="3" fill="#b45309" stroke="#b45309"/>
<text x="707.8" y="795.1" font-size="11" fill="#111827" text-anchor="start" dominant-baseline="middle">$_NOT_|{&lt;p68&gt; Y}}</text>
<circle cx="1030.0" cy="772.6" r="4.0" fill="#6b7280" stroke="#6b7280"/>
<rect x="711.2" y="785.1" width="20.0" height="20.0" rx="3" ry="3" fill="#b45309" stroke="#b45309"/>
<text x="739.2" y="795.1" font-size="11" fill="#111827" text-anchor="start" dominant-baseline="middle">$_NOT_|{&lt;p68&gt; Y}}</text>
<circle cx="1030.0" cy="784.1" r="4.0" fill="#6b7280" stroke="#6b7280"/>
<rect x="775.3" y="785.1" width="20.0" height="20.0" rx="3" ry="3" fill="#b45309" stroke="#b45309"/>
<text x="803.3" y="795.1" font-size="11" fill="#111827" text-anchor="start" dominant-baseline="middle">$_AND_|{&lt;p68&gt; Y}}</text>
<circle cx="1030.0" cy="791.8" r="4.0" fill="#6b7280" stroke="#6b7280"/>
<circle cx="1030.0" cy="795.1" r="4.0" fill="#6b7280" stroke="#6b7280"/>
<rect x="611.1" y="624.8" width="20.0" height="20.0" rx="3" ry="3" fill="#b45309" stroke="#b45309"/>
<text x="639.1" y="634.8" font-size="11" fill="#111827" text-anchor="start" dominant-baseline="middle">$_AND_|{&lt;p68&gt; Y}}</text>
<rect x="981.4" y="136.0" width="20.0" height="20.0" rx="3" ry="3" fill="#b45309" stroke="#b45309"/>
<text x="1009.4" y="146.0" font-size="11" fill="#111827" text-anchor="start" dominant-baseline="middle">$_AND_|{&lt;p68&gt; Y}}</text>
<circle cx="1030.0" cy="430.5" r="4.0" fill="#6b7280" stroke="#6b7280"/>
<rect x="1071.1" y="785.1" width="20.0" height="20.0" rx="3" ry="3" fill="#b45309" stroke="#b45309"/>
<text x="1099.1" y="795.1" font-size="11" fill="#111827" text-anchor="start" dominant-baseline="middle">$_AND_|{&lt;p68&gt; Y}}</text>
<rect x="1071.1" y="323.7" width="20.0" height="20.0" rx="3" ry="3" fill="#b45309" stroke="#b45309"/>
<text x="1099.1" y="333.7" font-size="11" fill="#111827" text-anchor="start" dominant-baseline="middle">$_AND_|{&lt;p68&gt; Y}}</text>
<circle cx="1030.0" cy="458.4" r="4.0" fill="#6b7280" stroke="#6b7280"/>
<rect x="966.4" y="136.0" width="20.0" height="20.0" rx="3" ry="3" fill="#b45309" stroke="#b45309"/>
<text x="994.4" y="146.0" font-size="11" fill="#111827" text-anchor="start" dominant-baseline="middle">$_AND_|{&lt;p68&gt; Y}}</text>
<rect x="735.6" y="239.9" width="20.0" height="20.0" rx="3" ry="3" fill="#b45309" stroke="#b45309"/>
<text x="763.6" y="249.9" font-size="11" fill="#111827" text-anchor="start" dominant-baseline="middle">$_AND_|{&lt;p68&gt; Y}}</text>
<circle cx="1030.0" cy="471.3" r="4.0" fill="#6b7280" stroke="#6b7280"/>
<rect x="892.0" y="312.9" width="20.0" height="20.0" rx="3" ry="3" fill="#b45309" stroke="#b45309"/>
<text x="920.0" y="322.9" font-size="11" fill="#111827" text-anchor="start" dominant-baseline="middle">$_AND_|{&lt;p68&gt; Y}}</text>
<circle cx="1030.0" cy="494.3" r="4.0" fill="#6b7280" stroke="#6b7280"/>
<circle cx="1030.0" cy="511.3" r="4.0" fill="#6b7280" stroke="#6b7280"/>
<rect x="915.8" y="136.0" width="20.0" height="20.0" rx="3" ry="3" fill="#b45309" stroke="#b45309"/>
<text x="943.8" y="146.0" font-size="11" fill="#111827" text-anchor="start" dominant-baseline="middle">$_AND_|{&lt;p68&gt; Y}}</text>
<rect x="1071.1" y="671.0" width="20.0" height="20.0" rx="3" ry="3" fill="#b45309" stroke="#b45309"/>
<text x="1099.1" y="681.0" font-size="11" fill="#111827" text-anchor="start" dominant-baseline="middle">$_AND_|{&lt;p68&gt; Y}}</text>
<rect x="734.5" y="486.0" width="20.0" height="20.0" rx="3" ry="3" fill="#b45309" stroke="#b45309"/>
<text x="762.5" y="496.0" font-size="11" fill="#111827" text-anchor="start" dominant-baseline="middle">$_OR_|{&lt;p68&gt; Y}}</text>
<circle cx="1030.0" cy="529.6" r="4.0" fill="#6b7280" stroke="#6b7280"/>
<circle cx="1030.0" cy="544.1" r="4.0" fill="#6b7280" stroke="#6b7280"/>
<rect x="1071.1" y="768.6" width="20.0" height="20.0" rx="3" ry="3" fill="#b45309" stroke="#b45309"/>
<text x="1099.1" y="778.6" font-size="11" fill="#111827" text-anchor="start" dominant-baseline="middle">$_AND_|{&lt;p68&gt; Y}}</text>
<rect x="1071.1" y="458.5" width="20.0" height="20.0" rx="3" ry="3" fill="#b45309" stroke="#b45309"/>
<text x="1099.1" y="468.5" font-size="11" fill="#111827" text-anchor="start" dominant-baseline="middle">$_AND_|{&lt;p68&gt; Y}}</text>
<rect x="843.4" y="448.9" width="20.0" height="20.0" rx="3" ry="3" fill="#b45309" stroke="#b45309"/>
<text x="871.4" y="458.9" font-size="11" fill="#111827" text-anchor="start" dominant-baseline="middle">$_AND_|{&lt;p68&gt; Y}}</text>
<circle cx="1030.0" cy="557.7" r="4.0" fill="#6b7280" stroke="#6b7280"/>
<rect x="713.6" y="714.3" width="20.0" height="20.0" rx="3" ry="3" fill="#b45309" stroke="#b45309"/>
<text x="741.6" y="724.3" font-size="11" fill="#111827" text-anchor="start" dominant-baseline="middle">$_AND_|{&lt;p68&gt; Y}}</text>
<rect x="923.9" y="785.1" width="20.0" height="20.0" rx="3" ry="3" fill="#b45309" stroke="#b45309"/>
<text x="951.9" y="795.1" font-size="11" fill="#111827" text-anchor="start" dominant-baseline="middle">$_AND_|{&lt;p68&gt; Y}}</text>
<rect x="1071.1" y="677.5" width="20.0" height="20.0" rx="3" ry="3" fill="#b45309" stroke="#b45309"/>
<text x="1099.1" y="687.5" font-size="11" fill="#111827" text-anchor="start" dominant-baseline="middle">$_OR_|{&lt;p68&gt; Y}}</text>
<rect x="1071.1" y="785.1" width="20.0" height="20.0" rx="3" ry="3" fill="#b45309" stroke="#b45309"/>
<text x="1099.1" y="795.1" font-size="11" fill="#111827" text-anchor="start" dominant-baseline="middle">$_AND_|{&lt;p68&gt; Y}}</text>
<circle cx="1030.0" cy="574.7" r="4.0" fill="#6b7280" stroke="#6b7280"/>
<rect x="1071.1" y="785.1" width="20.0" height="20.0" rx="3" ry="3" fill="#b45309" stroke="#b45309"/>
<text x="1099.1" y="795.1" font-size="11" fill="#111827" text-anchor="start" dominant-baseline="middle">$_AND_|{&lt;p68&gt; Y}}</text>
<rect x="1071.1" y="473.9" width="20.0" height="20.0" rx="3" ry="3" fill="#b45309" stroke="#b45309"/>
<text x="1099.1" y="483.9" font-size="11" fill="#111827" text-anchor="start" dominant-baseline="middle">$_AND_|{&lt;p68&gt; Y}}</text>
<rect x="783.1" y="588.6" width="20.0" height="20.0" rx="3" ry="3" fill="#b45309" stroke="#b45309"/>
<text x="811.1" y="598.6" font-size="11" fill="#111827" text-anchor="start" dominant-baseline="middle">$_AND_|{&lt;p68&gt; Y}}</text>
<circle cx="1030.0" cy="584.8" r="4.0" fill="#6b7280" stroke="#6b7280"/>
<circle cx="1030.0" cy="605.5" r="4.0" fill="#6b7280" stroke="#6b7280"/>
<rect x="1071.1" y="411.0" width="20.0" height="20.0" rx="3" ry="3" fill="#b45309" stroke="#b45309"/>
<text x="1099.1" y="421.0" font-size="11" fill="#111827" text-anchor="start" dominant-baseline="middle">$_AND_|{&lt;p68&gt; Y}}</text>
<rect x="1071.1" y="187.1" width="20.0" height="20.0" rx="3" ry="3" fill="#b45309" stroke="#b45309"/>
<text x="1099.1" y="197.1" font-size="11" fill="#111827" text-anchor="start" dominant-baseline="middle">$_AND_|{&lt;p68&gt; Y}}</text>
<rect x="1071.1" y="141.9" width="20.0" height="20.0" rx="3" ry="3" fill="#b45309" stroke="#b45309"/>
<text x="1099.1" y="151.9" font-size="11" fill="#111827" text-anchor="start" dominant-baseline="middle">$_OR_|{&lt;p68&gt; Y}}</text>
<rect x="799.9" y="136.0" width="20.0" height="20.0" rx="3" ry="3" fill="#b45309" stroke="#b45309"/>
<text x="827.9" y="146.0" font-size="11" fill="#111827" text-anchor="start" dominant-baseline="middle">$_OR_|{&lt;p68&gt; Y}}</text>
<rect x="641.2" y="136.0" width="20.0" height="20.0" rx="3" ry="3" fill="#b45309" stroke="#b45309"/>
<text x="669.2" y="146.0" font-size="11" fill="#111827" text-anchor="start" dominant-baseline="middle">$_OR_|{&lt;p68&gt; Y}}</text>
<rect x="611.1" y="136.0" width="20.0" height="20.0" rx="3" ry="3" fill="#b45309" stroke="#b45309"/>
<text x="639.1" y="146.0" font-size="11" fill="#111827" text-anchor="start" dominant-baseline="middle">$_AND_|{&lt;p68&gt; Y}}</text>
<rect x="1071.1" y="245.5" width="20.0" height="20.0" rx="3" ry="3" fill="#b45309" stroke="#b45309"/>
<text x="1099.1" y="255.5" font-size="11" fill="#111827" text-anchor="start" dominant-baseline="middle">$_AND_|{&lt;p68&gt; Y}}</text>
<rect x="1071.1" y="350.5" width="20.0" height="20.0" rx="3" ry="3" fill="#b45309" stroke="#b45309"/>
<text x="1099.1" y="360.5" font-size="11" fill="#111827" text-anchor="start" dominant-baseline="middle">$_AND_|{&lt;p68&gt; Y}}</text>
<circle cx="1030.0" cy="613.6" r="4.0" fill="#6b7280" stroke="#6b7280"/>
<circle cx="1030.0" cy="623.4" r="4.0" fill="#6b7280" stroke="#6b7280"/>
<rect x="769.0" y="136.0" width="20.0" height="20.0" rx="3" ry="3" fill="#b45309" stroke="#b45309"/>
<text x="797.0" y="146.0" font-size="11" fill="#111827" text-anchor="start" dominant-baseline="middle">$_NOT_|{&lt;p68&gt; Y}}</text>
<rect x="1071.1" y="220.0" width="20.0" height="20.0" rx="3" ry="3" fill="#b45309" stroke="#b45309"/>
<text x="1099.1" y="230.0" font-size="11" fill="#111827" text-anchor="start" dominant-baseline="middle">$_AND_|{&lt;p68&gt; Y}}</text>
<rect x="1071.1" y="366.3" width="20.0" height="20.0" rx="3" ry="3" fill="#b45309" stroke="#b45309"/>
<text x="1099.1" y="376.3" font-size="11" fill="#111827" text-anchor="start" dominant-baseline="middle">$_AND_|{&lt;p68&gt; Y}}</text>
<rect x="1055.1" y="136.0" width="20.0" height="20.0" rx="3" ry="3" fill="#b45309" stroke="#b45309"/>
<text x="1083.1" y="146.0" font-size="11" fill="#111827" text-anchor="start" dominant-baseline="middle">$_OR_|{&lt;p68&gt; Y}}</text>
<rect x="1071.1" y="267.0" width="20.0" height="20.0" rx="3" ry="3" fill="#b45309" stroke="#b45309"/>
<text x="1099.1" y="277.0" font-size="11" fill="#111827" text-anchor="start" dominant-baseline="middle">$_AND_|{&lt;p68&gt; Y}}</text>
<rect x="1071.1" y="136.0" width="20.0" height="20.0" rx="3" ry="3" fill="#b45309" stroke="#b45309"/>
<text x="1099.1" y="146.0" font-size="11" fill="#111827" text-anchor="start" dominant-baseline="middle">$_AND_|{&lt;p68&gt; Y}}</text>
<rect x="1071.1" y="176.8" width="20.0" height="20.0" rx="3" ry="3" fill="#b45309" stroke="#b45309"/>
<text x="1099.1" y="186.8" font-size="11" fill="#111827" text-anchor="start" dominant-baseline="middle">$_AND_|{&lt;p68&gt; Y}}</text>
<rect x="1071.1" y="136.0" width="20.0" height="20.0" rx="3" ry="3" fill="#b45309" stroke="#b45309"/>
<text x="1099.1" y="146.0" font-size="11" fill="#111827" text-anchor="start" dominant-baseline="middle">$_OR_|{&lt;p68&gt; Y}}</text>
<rect x="1071.1" y="136.0" width="20.0" height="20.0" rx="3" ry="3" fill="#b45309" stroke="#b45309"/>
<text x="1099.1" y="146.0" font-size="11" fill="#111827" text-anchor="start" dominant-baseline="middle">$_OR_|{&lt;p68&gt; Y}}</text>
<rect x="1014.3" y="136.0" width="20.0" height="20.0" rx="3" ry="3" fill="#b45309" stroke="#b45309"/>
<text x="1042.3" y="146.0" font-size="11" fill="#111827" text-anchor="start" dominant-baseline="middle">$_OR_|{&lt;p68&gt; Y}}</text>
<rect x="763.7" y="358.3" width="20.0" height="20.0" rx="3" ry="3" fill="#b45309" stroke="#b45309"/>
<text x="791.7" y="368.3" font-size="11" fill="#111827" text-anchor="start" dominant-baseline="middle">$_AND_|{&lt;p68&gt; Y}}</text>
<circle cx="1030.0" cy="633.7" r="4.0" fill="#6b7280" stroke="#6b7280"/>
<rect x="903.0" y="630.0" width="20.0" height="20.0" rx="3" ry="3" fill="#b45309" stroke="#b45309"/>
<text x="931.0" y="640.0" font-size="11" fill="#111827" text-anchor="start" dominant-baseline="middle">$_AND_|{&lt;p68&gt; Y}}</text>
<circle cx="1030.0" cy="651.7" r="4.0" fill="#6b7280" stroke="#6b7280"/>
<rect x="961.8" y="285.5" width="20.0" height="20.0" rx="3" ry="3" fill="#b45309" stroke="#b45309"/>
<text x="989.8" y="295.5" font-size="11" fill="#111827" text-anchor="start" dominant-baseline="middle">$_AND_|{&lt;p68&gt; Y}}</text>
<rect x="913.1" y="136.0" width="20.0" height="20.0" rx="3" ry="3" fill="#b45309" stroke="#b45309"/>
<text x="941.1" y="146.0" font-size="11" fill="#111827" text-anchor="start" dominant-baseline="middle">$_OR_|{&lt;p68&gt; Y}}</text>
<rect x="852.9" y="136.0" width="20.0" height="20.0" rx="3" ry="3" fill="#b45309" stroke="#b45309"/>
<text x="880.9" y="146.0" font-size="11" fill="#111827" text-anchor="start" dominant-baseline="middle">$_OR_|{&lt;p68&gt; Y}}</text>
<rect x="616.6" y="502.2" width="20.0" height="20.0" rx="3" ry="3" fill="#b45309" stroke="#b45309"/>
<text x="644.6" y="512.2" font-size="11" fill="#111827" text-anchor="start" dominant-baseline="middle">$_AND_|{&lt;p68&gt; Y}}</text>
<circle cx="1030.0" cy="662.5" r="4.0" fill="#6b7280" stroke="#6b7280"/>
<rect x="611.1" y="281.8" width="20.0" height="20.0" rx="3" ry="3" fill="#b45309" stroke="#b45309"/>
<text x="639.1" y="291.8" font-size="11" fill="#111827" text-anchor="start" dominant-baseline="middle">$_AND_|{&lt;p68&gt; Y}}</text>
<rect x="615.3" y="136.0" width="20.0" height="20.0" rx="3" ry="3" fill="#b45309" stroke="#b45309"/>
<text x="643.3" y="146.0" font-size="11" fill="#111827" text-anchor="start" dominant-baseline="middle">$_AND_|{&lt;p68&gt; Y}}</text>
<rect x="611.1" y="174.1" width="20.0" height="20.0" rx="3" ry="3" fill="#b45309" stroke="#b45309"/>
<text x="639.1" y="184.1" font-size="11" fill="#111827" text-anchor="start" dominant-baseline="middle">$_AND_|{&lt;p68&gt; Y}}</text>
<rect x="611.1" y="314.0" width="20.0" height="20.0" rx="3" ry="3" fill="#b45309" stroke="#b45309"/>
<text x="639.1" y="324.0" font-size="11" fill="#111827" text-anchor="start" dominant-baseline="middle">$_OR_|{&lt;p68&gt; Y}}</text>
<rect x="611.1" y="581.0" width="20.0" height="20.0" rx="3" ry="3" fill="#b45309" stroke="#b45309"/>
<text x="639.1" y="591.0" font-size="11" fill="#111827" text-anchor="start" dominant-baseline="middle">$_AND_|{&lt;p68&gt; Y}}</text>
<circle cx="1030.0" cy="679.1" r="4.0" fill="#6b7280" stroke="#6b7280"/>
<rect x="611.1" y="154.0" width="20.0" height="20.0" rx="3" ry="3" fill="#b45309" stroke="#b45309"/>
<text x="639.1" y="164.0" font-size="11" fill="#111827" text-anchor="start" dominant-baseline="middle">$_AND_|{&lt;p68&gt; Y}}</text>
<rect x="1028.3" y="136.0" width="20.0" height="20.0" rx="3" ry="3" fill="#b45309" stroke="#b45309"/>
<text x="1056.3" y="146.0" font-size="11" fill="#111827" text-anchor="start" dominant-baseline="middle">$_AND_|{&lt;p68&gt; Y}}</text>
<rect x="956.8" y="136.0" width="20.0" height="20.0" rx="3" ry="3" fill="#b45309" stroke="#b45309"/>
<text x="984.8" y="146.0" font-size="11" fill="#111827" text-anchor="start" dominant-baseline="middle">$_OR_|{&lt;p68&gt; Y}}</text>
<rect x="650.5" y="373.2" width="20.0" height="20.0" rx="3" ry="3" fill="#b45309" stroke="#b45309"/>
<text x="678.5" y="383.2" font-size="11" fill="#111827" text-anchor="start" dominant-baseline="middle">$_OR_|{&lt;p68&gt; Y}}</text>
<rect x="611.1" y="642.3" width="20.0" height="20.0" rx="3" ry="3" fill="#b45309" stroke="#b45309"/>
<text x="639.1" y="652.3" font-size="11" fill="#111827" text-anchor="start" dominant-baseline="middle">$_OR_|{&lt;p68&gt; Y}}</text>
<rect x="611.1" y="417.7" width="20.0" height="20.0" rx="3" ry="3" fill="#b45309" stroke="#b45309"/>
<text x="639.1" y="427.7" font-size="11" fill="#111827" text-anchor="start" dominant-baseline="middle">$_OR_|{&lt;p68&gt; Y}}</text>
<rect x="611.1" y="218.9" width="20.0" height="20.0" rx="3" ry="3" fill="#b45309" stroke="#b45309"/>
<text x="639.1" y="228.9" font-size="11" fill="#111827" text-anchor="start" dominant-baseline="middle">$_AND_|{&lt;p68&gt; Y}}</text>
<circle cx="1030.0" cy="702.4" r="4.0" fill="#6b7280" stroke="#6b7280"/>
<circle cx="1030.0" cy="718.0" r="4.0" fill="#6b7280" stroke="#6b7280"/>
<circle cx="1112.2" cy="146.0" r="10.0" fill="#374151" stroke="#374151"/>
<text x="1132.2" y="146.0" font-size="14" fill="#111827" text-anchor="start" dominant-baseline="middle">n1</text>
<circle cx="549.7" cy="391.5" r="10.0" fill="#374151" stroke="#374151"/>
<text x="569.7" y="391.5" font-size="14" fill="#111827" text-anchor="start" dominant-baseline="middle">n10</text>
<circle cx="1214.8" cy="146.0" r="10.0" fill="#374151" stroke="#374151"/>
<text x="1234.8" y="146.0" font-size="14" fill="#111827" text-anchor="start" dominant-baseline="middle">n11</text>
<circle cx="1279.4" cy="640.1" r="10.0" fill="#374151" stroke="#374151"/>
<text x="1299.4" y="640.1" font-size="14" fill="#111827" text-anchor="start" dominant-baseline="middle">n12</text>
<circle cx="748.6" cy="146.0" r="10.0" fill="#374151" stroke="#374151"/>
<text x="768.6" y="146.0" font-size="14" fill="#111827" text-anchor="start" dominant-baseline="middle">n14</text>
<circle cx="936.8" cy="265.9" r="10.0" fill="#374151" stroke="#374151"/>
<text x="956.8" y="265.9" font-size="14" fill="#111827" text-anchor="start" dominant-baseline="middle">n17</text>
<circle cx="1312.9" cy="795.1" r="10.0" fill="#374151" stroke="#374151"/>
<text x="1332.9" y="795.1" font-size="14" fill="#111827" text-anchor="start" dominant-baseline="middle">n18</text>
<circle cx="1142.8" cy="146.0" r="10.0" fill="#374151" stroke="#374151"/>
<text x="1162.8" y="146.0" font-size="14" fill="#111827" text-anchor="start" dominant-baseline="middle">n2</text>
<circle cx="1256.6" cy="795.1" r="10.0" fill="#374151" stroke="#374151"/>
<text x="1276.6" y="795.1" font-size="14" fill="#111827" text-anchor="start" dominant-baseline="middle">n20</text>
<circle cx="1285.5" cy="414.2" r="10.0" fill="#374151" stroke="#374151"/>
<text x="1305.5" y="414.2" font-size="14" fill="#111827" text-anchor="start" dominant-baseline="middle">n21</text>
<circle cx="777.9" cy="443.2" r="10.0" fill="#374151" stroke="#374151"/>
<text x="797.9" y="443.2" font-size="14" fill="#111827" text-anchor="start" dominant-baseline="middle">n25</text>
<circle cx="1286.1" cy="684.4" r="10.0" fill="#374151" stroke="#374151"/>
<text x="1306.1" y="684.4" font-size="14" fill="#111827" text-anchor="start" dominant-baseline="middle">n26</text>
<circle cx="1221.3" cy="235.0" r="10.0" fill="#374151" stroke="#374151"/>
<text x="1241.3" y="235.0" font-size="14" fill="#111827" text-anchor="start" dominant-baseline="middle">n28</text>
<circle cx="840.6" cy="357.8" r="10.0" fill="#374151" stroke="#374151"/>
<text x="860.6" y="357.8" font-size="14" fill="#111827" text-anchor="start" dominant-baseline="middle">n29</text>
<circle cx="1255.4" cy="704.0" r="10.0" fill="#374151" stroke="#374151"/>
<text x="1275.4" y="704.0" font-size="14" fill="#111827" text-anchor="start" dominant-baseline="middle">n3</text>
<circle cx="1330.4" cy="146.0" r="10.0" fill="#374151" stroke="#374151"/>
<text x="1350.4" y="146.0" font-size="14" fill="#111827" text-anchor="start" dominant-baseline="middle">n31</text>
<circle cx="1151.1" cy="146.0" r="10.0" fill="#374151" stroke="#374151"/>
<text x="1171.1" y="146.0" font-size="14" fill="#111827" text-anchor="start" dominant-baseline="middle">n36</text>
<circle cx="1203.6" cy="146.0" r="10.0" fill="#374151" stroke="#374151"/>
<text x="1223.6" y="146.0" font-size="14" fill="#111827" text-anchor="start" dominant-baseline="middle">n38</text>
<circle cx="1218.4" cy="595.4" r="10.0" fill="#374151" stroke="#374151"/>
<text x="1238.4" y="595.4" font-size="14" fill="#111827" text-anchor="start" dominant-baseline="middle">n4</text>
<circle cx="1234.7" cy="146.0" r="10.0" fill="#374151" stroke="#374151"/>
<text x="1254.7" y="146.0" font-size="14" fill="#111827" text-anchor="start" dominant-baseline="middle">n40</text>
<circle cx="1305.0" cy="146.0" r="10.0" fill="#374151" stroke="#374151"/>
<text x="1325.0" y="146.0" font-size="14" fill="#111827" text-anchor="start" dominant-baseline="middle">n41</text>
<circle cx="1268.2" cy="146.0" r="10.0" fill="#374151" stroke="#374151"/>
<text x="1288.2" y="146.0" font-size="14" fill="#111827" text-anchor="start" dominant-baseline="middle">n43</text>
<circle cx="1215.4" cy="795.1" r="10.0" fill="#374151" stroke="#374151"/>
<text x="1235.4" y="795.1" font-size="14" fill="#111827" text-anchor="start" dominant-baseline="middle">n5</text>
<circle cx="517.6" cy="286.9" r="10.0" fill="#374151" stroke="#374151"/>
<text x="537.6" y="286.9" font-size="14" fill="#111827" text-anchor="start" dominant-baseline="middle">n50</text>
<circle cx="414.7" cy="543.5" r="10.0" fill="#374151" stroke="#374151"/>
<text x="434.7" y="543.5" font-size="14" fill="#111827" text-anchor="start" dominant-baseline="middle">n54</text>
<circle cx="1152.0" cy="795.1" r="10.0" fill="#374151" stroke="#374151"/>
<text x="1172.0" y="795.1" font-size="14" fill="#111827" text-anchor="start" dominant-baseline="middle">n6</text>
</svg>